<?xml version="1.0" standalone="no"?>
<!DOCTYPE svg PUBLIC "-//W3C//DTD SVG 20010904//EN"
 "http://www.w3.org/TR/2001/REC-SVG-20010904/DTD/svg10.dtd">
<svg version="1.0" xmlns="http://www.w3.org/2000/svg"
 width="914.000000pt" height="452.000000pt" viewBox="0 0 914.000000 452.000000"
 preserveAspectRatio="xMidYMid meet">

<g transform="translate(0.000000,452.000000) scale(0.100000,-0.100000)"
fill="#9C1F5C" stroke="none">
<path d="M1910 4419 c-197 -25 -457 -99 -625 -178 -264 -123 -488 -294 -686
-520 -242 -277 -393 -582 -464 -934 -121 -603 16 -1198 384 -1674 75 -98 228
-263 242 -263 5 0 13 8 16 18 12 30 124 215 168 278 60 84 121 142 220 208 47
32 96 72 110 90 13 17 70 113 126 211 56 99 128 218 159 265 l58 85 5 102 c8
166 48 232 210 347 155 110 226 225 342 549 30 85 64 133 103 148 14 5 23 11
20 14 -4 5 -298 32 -448 42 l-96 6 -74 -69 c-41 -38 -127 -112 -190 -165 -188
-157 -200 -173 -225 -296 -10 -50 -61 -112 -110 -134 -40 -18 -48 -18 -77 -5
-44 18 -77 51 -94 93 -26 61 -5 93 114 176 39 27 93 81 144 143 132 163 292
347 336 386 105 95 194 113 547 112 259 -1 274 -2 370 -27 125 -34 168 -35
189 -5 25 35 19 87 -19 178 -35 87 -45 162 -26 212 4 13 11 35 14 49 l7 26
-67 -26 c-49 -19 -84 -42 -132 -89 -116 -111 -260 -162 -413 -148 -107 10
-232 67 -260 119 -10 19 -7 19 64 15 86 -6 168 6 220 33 22 11 65 53 101 96
114 141 149 163 272 171 92 5 142 -11 214 -69 25 -19 47 -30 58 -26 10 3 44
15 75 26 103 38 241 20 315 -39 42 -34 90 -107 102 -156 8 -30 8 -56 -1 -95
-17 -81 -14 -113 15 -158 15 -22 27 -43 27 -46 0 -2 -17 -13 -39 -24 -31 -17
-40 -28 -49 -64 -25 -98 -64 -114 -183 -77 -76 23 -85 18 -119 -66 l-22 -54
30 -47 c17 -27 85 -156 151 -288 67 -132 128 -246 135 -254 18 -18 26 -15 243
91 169 82 215 118 228 179 9 39 70 106 105 114 77 17 140 -30 140 -103 0 -61
-32 -101 -123 -153 -146 -85 -225 -135 -347 -220 -69 -47 -139 -94 -157 -103
-41 -20 -86 -20 -129 0 -61 29 -272 268 -297 336 -3 8 -19 -4 -42 -30 -21 -24
-90 -85 -153 -135 -98 -78 -292 -275 -292 -298 0 -4 30 -17 68 -29 335 -110
540 -213 676 -340 48 -45 85 -107 86 -144 1 -82 -184 -268 -597 -599 -163
-131 -168 -138 -168 -252 0 -99 11 -129 86 -234 45 -62 49 -87 16 -102 -19 -8
-34 -5 -80 16 -43 20 -94 64 -205 174 -157 154 -172 173 -172 217 0 42 80 114
159 143 94 34 171 120 376 416 93 134 141 185 173 185 15 0 22 4 17 9 -6 4
-82 14 -170 20 -221 16 -410 38 -539 62 -59 11 -110 18 -113 16 -2 -3 17 -17
42 -31 l45 -27 -16 -32 c-30 -58 -468 -484 -604 -586 -149 -113 -262 -220
-417 -396 -140 -158 -230 -275 -256 -334 -35 -80 -7 -288 48 -357 33 -41 46
-23 50 72 5 132 70 318 142 409 35 45 37 45 223 -50 273 -138 537 -213 834
-235 458 -34 934 100 1310 369 489 349 798 841 881 1403 20 140 20 426 0 578
-73 555 -364 1049 -815 1385 -286 212 -645 355 -995 395 -105 12 -411 11 -505
-1z"/>
<path d="M5098 3726 c-86 -30 -126 -55 -178 -112 -67 -73 -94 -143 -94 -244 0
-108 25 -169 98 -239 68 -64 129 -94 279 -136 188 -54 256 -94 273 -162 18
-71 -40 -152 -129 -178 -129 -38 -267 2 -360 104 l-38 42 -71 -58 c-39 -32
-77 -63 -85 -70 -20 -16 -6 -39 62 -101 101 -92 238 -142 395 -142 273 0 456
148 468 376 10 196 -90 303 -358 384 -166 49 -205 68 -250 116 -32 35 -40 51
-40 81 0 88 73 142 192 143 88 0 163 -28 227 -86 l50 -45 81 77 81 77 -38 39
c-58 59 -138 109 -220 135 -104 33 -250 32 -345 -1z"/>
<path d="M5888 3100 l2 -650 115 0 115 0 0 268 c0 155 4 283 11 305 12 46 58
100 99 117 18 7 56 11 97 8 63 -4 68 -6 103 -46 23 -25 40 -56 44 -79 3 -21 6
-158 6 -305 l0 -268 116 0 115 0 -3 338 c-3 327 -4 339 -27 396 -50 124 -145
181 -301 181 -73 0 -93 -4 -142 -28 -32 -16 -71 -45 -88 -65 l-30 -37 0 258 0
257 -117 0 -118 0 3 -650z"/>
<path d="M7204 3360 c-100 -20 -226 -117 -274 -209 -31 -62 -60 -185 -60 -256
0 -287 187 -479 465 -478 44 0 106 8 137 17 65 19 169 86 204 132 l24 31 -65
57 -65 57 -60 -39 c-53 -36 -129 -62 -179 -62 -41 0 -124 33 -158 63 -38 34
-72 97 -73 134 l0 23 313 2 312 3 0 55 c1 141 -40 270 -111 350 -92 102 -257
150 -410 120z m189 -194 c18 -7 45 -27 60 -43 28 -30 61 -115 50 -127 -4 -3
-96 -6 -205 -6 -152 0 -198 3 -198 13 0 6 11 35 24 63 23 49 59 84 107 103 36
14 125 13 162 -3z"/>
<path d="M5007 2129 c-96 -23 -197 -102 -238 -186 -29 -60 -35 -146 -16 -214
33 -111 128 -180 332 -239 171 -50 205 -74 205 -146 0 -80 -74 -133 -186 -134
-85 0 -145 23 -209 82 l-55 50 -46 -38 c-26 -22 -58 -48 -72 -60 -31 -25 -23
-44 44 -103 145 -127 409 -157 564 -63 45 27 111 96 132 137 30 57 37 180 13
241 -38 99 -100 144 -285 204 -68 22 -143 51 -167 65 -130 77 -72 225 89 225
76 0 124 -16 169 -57 l39 -36 68 64 c37 35 68 67 70 70 5 10 -75 77 -117 99
-90 45 -235 62 -334 39z"/>
<path d="M5835 1797 c-107 -35 -181 -103 -232 -213 -25 -53 -28 -70 -28 -169
0 -102 2 -115 31 -175 43 -92 84 -134 171 -177 69 -34 82 -37 162 -37 96 0
144 12 212 56 41 25 119 109 119 127 0 4 -34 23 -76 44 l-75 37 -32 -31 c-60
-61 -145 -76 -216 -39 -75 38 -106 106 -99 220 7 123 65 190 165 190 69 0 112
-18 145 -62 l26 -35 81 39 c45 21 81 42 81 47 0 4 -17 32 -38 62 -30 42 -52
61 -105 89 -61 30 -78 34 -160 37 -57 2 -107 -2 -132 -10z"/>
<path d="M6587 1786 c-106 -44 -166 -107 -208 -215 -33 -82 -32 -233 1 -316
32 -82 123 -174 201 -203 121 -45 229 -39 342 21 71 37 110 81 151 167 29 61
31 72 31 180 0 105 -2 120 -28 176 -34 74 -102 143 -177 180 -46 23 -70 28
-155 31 -88 3 -107 1 -158 -21z m210 -157 c74 -27 122 -109 123 -205 0 -71
-13 -116 -47 -162 -33 -44 -72 -62 -135 -62 -68 0 -115 24 -153 78 -25 37 -30
55 -33 118 -5 87 13 146 56 190 50 50 125 67 189 43z"/>
<path d="M7544 1792 c-47 -26 -68 -44 -94 -79 -13 -18 -27 -33 -32 -33 -4 0
-8 25 -8 55 l0 55 -90 0 -90 0 0 -370 0 -370 94 0 95 0 3 218 c3 245 7 258 82
310 32 22 52 27 112 30 l74 4 0 99 0 99 -57 0 c-35 -1 -70 -8 -89 -18z"/>
<path d="M7956 1790 c-130 -51 -203 -150 -225 -306 -27 -188 50 -354 196 -421
151 -69 310 -49 423 54 22 19 40 40 40 47 0 6 -22 30 -50 54 l-50 43 -32 -24
c-112 -83 -276 -52 -324 62 -27 64 -38 61 237 61 l252 0 -5 100 c-4 86 -9 108
-37 164 -38 78 -107 144 -177 169 -66 23 -184 22 -248 -3z m204 -145 c32 -17
62 -55 77 -101 l11 -31 -82 -7 c-44 -3 -119 -6 -165 -6 l-83 0 6 31 c8 40 41
86 80 110 38 23 115 25 156 4z"/>
<path d="M8671 1793 c-118 -42 -182 -180 -136 -291 31 -74 86 -110 235 -155
100 -31 130 -50 130 -82 0 -37 -10 -55 -41 -70 -65 -34 -185 -8 -235 51 l-20
25 -56 -48 c-31 -27 -57 -52 -57 -57 -1 -5 20 -29 45 -52 64 -60 137 -86 245
-88 80 -1 91 2 155 34 58 30 74 44 101 90 27 44 33 64 33 112 0 122 -47 171
-219 224 -121 38 -161 65 -161 108 0 80 167 89 248 13 l23 -21 52 53 52 52
-43 39 c-61 55 -134 80 -230 79 -42 0 -97 -8 -121 -16z"/>
</g>
</svg>
